<svg xmlns:xlink="http://www.w3.org/1999/xlink" width="21" height="23" xmlns="http://www.w3.org/2000/svg"><path d="M17.548 13.464c.003.062 0 .121-.05.169l-.004-.003c-.048.046-.115.077-.134.147a.117.117 0 01-.03.031c-.065.024-.115.063-.136.13a.119.119 0 01-.032.03c-.065.027-.117.063-.11.14.002.046 0 .09-.017.132a.122.122 0 01-.027.036c-.066.027-.124.064-.145.137a.12.12 0 01-.031.03c-.077.027-.118.077-.108.16a.155.155 0 01-.049.13l-.003-.003c-.054.053-.128.094-.112.185a.155.155 0 01-.049.133l-.002-.002a.162.162 0 01-.137.05c-.084-.005-.141.022-.14.114a.284.284 0 01-.018.134.122.122 0 01-.027.035c-.076.033-.134.077-.119.17a.162.162 0 01-.047.13l-.004-.002c-.056.05-.129.091-.113.183a.156.156 0 01-.05.133l-.004-.003c-.046.05-.113.082-.133.152a.123.123 0 01-.031.031c-.078.028-.122.078-.11.163a.167.167 0 01-.045.132l-.007-.004c-.056.051-.129.092-.112.184a.166.166 0 01-.045.135l-.007-.004c-.05.047-.115.08-.136.151a.12.12 0 01-.03.03c-.075.029-.122.075-.11.159.011.048 0 .097 0 .146a.172.172 0 01-.047.147l-.005-.003c-.05.047-.115.08-.136.151a.124.124 0 01-.031.03c-.075.029-.121.075-.11.159.012.048.001.097 0 .145a.17.17 0 01-.048.148l-.004-.003c-.055.05-.128.092-.112.184a.162.162 0 01-.047.134l-.004-.003c-.053.044-.106.046-.158-.001l-.01-.15c-.039-.066-.1-.113-.156-.165l-.005.004a.164.164 0 01-.048-.134c.016-.092-.056-.133-.113-.184l-.002.002a1.072 1.072 0 00-.161-.16l-.002.002a.158.158 0 01-.05-.133c.015-.091-.056-.133-.114-.182l-.003.002a.667.667 0 00-.163-.158c-.045-.052-.082-.112-.154-.134a.124.124 0 01-.032-.029c-.03-.068-.074-.115-.16-.106-.095.01-.19.003-.285.005-.07.002-.125.02-.152.087a.155.155 0 01-.03.033c-.077.035-.138.08-.118.176.01.094.01.187-.002.28a.526.526 0 010 .16c.02.188.007.376.009.564 0 .098.021.186.1.255v.281c-.044.049-.103.052-.164.05a1.273 1.273 0 01-.319 0 .694.694 0 01-.174.001 1.327 1.327 0 01-.324 0 1.308 1.308 0 01-.324 0 1.335 1.335 0 01-.324 0 .693.693 0 01-.175 0 1.337 1.337 0 01-.32 0 .687.687 0 01-.174 0 1.294 1.294 0 01-.32 0c-.103.01-.206.016-.31 0-.126.007-.264-.02-.353.105l.003.004a.14.14 0 01-.159.02c-.078-.14-.219-.127-.352-.13-.142.01-.197-.065-.204-.187a4.755 4.755 0 01-.002-.376.416.416 0 00-.099-.305v-.44c.152-.154.15-.328-.005-.473l-.006.004c-.139-.154-.329-.156-.488-.005l.001.001a.172.172 0 01-.135.047c-.08-.008-.136.022-.163.097a.126.126 0 01-.029.031c-.068.025-.12.065-.142.135a.122.122 0 01-.031.03c-.077.027-.117.078-.107.16a.166.166 0 01-.046.133l-.003-.002c-.052.043-.116.078-.138.148a.125.125 0 01-.03.031c-.075.028-.123.074-.11.158.011.049 0 .097-.001.146a.172.172 0 01-.046.148l-.006-.004c-.056.051-.128.092-.112.184a.161.161 0 01-.047.134l-.006-.003c-.044.046-.1.054-.161.05-.06.004-.117-.004-.16-.051l-.01-.307c-.038-.067-.1-.112-.155-.165l-.004.003a.16.16 0 01-.049-.133c.016-.09-.057-.133-.111-.185l-.006.004a.165.165 0 01-.047-.134c.016-.09-.057-.132-.111-.185l-.006.004a.164.164 0 01-.047-.134c.016-.09-.057-.132-.11-.185l-.007.004a.163.163 0 01-.047-.134c.015-.09-.057-.133-.112-.184l-.007.004a.168.168 0 01-.046-.135c.016-.091-.056-.133-.112-.184l-.004.003c-.044-.062-.104-.11-.159-.162l-.001.002a.15.15 0 01-.052-.132c.017-.09-.057-.132-.11-.184l-.009-.15c-.04-.066-.1-.113-.156-.165l-.006.003a.163.163 0 01-.047-.134c.015-.09-.056-.133-.114-.182l-.004.003a.168.168 0 01-.046-.135c.014-.092-.056-.134-.116-.182l-.003.003a.632.632 0 00-.161-.16H4.69c-.044-.061-.102-.11-.16-.16l-.003.002a.162.162 0 01-.049-.133c.016-.092-.056-.133-.113-.184l-.005.004c-.042-.064-.102-.112-.158-.163l-.002.002a1.427 1.427 0 00-.162-.16v.002a.148.148 0 01-.052-.132c.015-.09-.057-.132-.114-.182l-.003.002a.168.168 0 01-.047-.14c.018-.11-.1-.127-.146-.194a.347.347 0 01.004-.287c.147-.072.138-.206.14-.334-.012-.054-.004-.108-.001-.161-.011-.106-.029-.213.05-.305l.004.003c.132-.08.102-.212.112-.33a.17.17 0 01.046-.146l.005.003c.056-.049.13-.087.113-.178-.012-.05-.001-.098 0-.147a.17.17 0 01.05-.149l.004.004c.054-.052.128-.094.111-.185a.16.16 0 01.048-.134l.005.004c.054-.048.114-.09.141-.16a.105.105 0 01.04-.029.135.135 0 01.144.029l.003-.002c.043.062.102.11.158.162l.003-.003a.158.158 0 01.05.133c-.015.091.055.133.115.181h.001a.8.8 0 00.162.159h.001c.047.059.102.111.164.157.046.048.078.111.151.13a.124.124 0 01.032.028.206.206 0 00.14.135.122.122 0 01.03.03c.03.074.082.112.167.102a.18.18 0 01.139.045l-.003.002c.047.052.086.112.159.135a.134.134 0 01.032.03c.048.148.202.075.296.128.013.008.023.02.032.032.044.102.002.24.133.308l.008-.004c.077.091.06.197.05.302 0 .052.011.105-.002.157.009.12-.021.25.112.33l.004-.002a.166.166 0 01.047.134c-.016.091.056.133.112.184l.005-.003c.035.038.05.081.047.131-.01.08.027.133.105.16a.125.125 0 01.032.03c.024.07.087.108.14.155l.003-.003c.044.062.104.11.16.162l.001-.002c.049.054.094.111.167.139.046.054.072.127.153.149a.124.124 0 01.033.03c.028.06.063.112.144.106.084.005.113-.066.162-.11v.001c.06-.053.134-.099.11-.195-.01-.1-.02-.2.041-.29.098-.047.113-.129.114-.223.004-.293-.012-.585.01-.877-.022-.155-.011-.31-.01-.465a.21.21 0 01.063-.156l-.002-.001c.124-.095.27-.05.406-.06a.896.896 0 01.21.007c.121-.011.267.054.344-.099a.122.122 0 01.038-.032c.136-.047.277-.019.416-.026.076-.005.154 0 .192-.084a.151.151 0 01.032-.036.233.233 0 01.139-.032c.088.004.14-.04.175-.112a.127.127 0 01.041-.03c.142-.035.285-.028.427-.007.016.004.03.011.044.02.046.062.076.138.165.158a.15.15 0 01.031.032c.07.145.21.075.32.097a.213.213 0 01.15.034c.048.09.126.121.228.115.092-.005.185.001.277.005.06-.014.12-.01.18-.005.123.013.188.074.178.198.019.188.008.377.008.566 0 .094.022.176.1.238l.01.468c.034.04.05.084.044.135-.017.09.056.133.11.186l.008.15c.041.055.08.113.151.136a.124.124 0 01.032.029c.085.174.1-.02.151-.027a.23.23 0 01.135-.023c.093.013.133-.058.186-.108l-.003-.003a.176.176 0 01.14-.047c.099.007.147-.037.14-.134a.15.15 0 01.05-.132l.003.002c.056-.051.114-.1.16-.162l.003.003c.049-.047.114-.08.135-.15a.122.122 0 01.03-.03c.067-.027.12-.064.113-.145a.277.277 0 01.018-.132.122.122 0 01.027-.034c.077-.032.134-.077.116-.17-.012-.05.003-.098-.001-.148-.012-.103-.026-.206.048-.297l.009-.151c.047-.053.123-.089.11-.176a.218.218 0 01.023-.132c.052-.058.145-.08.167-.165a.125.125 0 01.037-.03.287.287 0 01.14-.021c.103.012.124-.077.176-.13a.225.225 0 01.134-.028c.089.012.14-.031.17-.106a.12.12 0 01.035-.03.285.285 0 01.137-.02c.078.006.125-.031.15-.099a.12.12 0 01.03-.031c.068-.024.119-.065.14-.134a.118.118 0 01.031-.03c.073-.022.11-.082.156-.133l-.002-.002a.698.698 0 00.166-.156.712.712 0 00.162-.16l.001.002a.665.665 0 00.163-.159v.001c.063-.046.131-.088.118-.18a.166.166 0 01.044-.136l.008-.15c.053-.05.106-.047.16-.002h-.002c.052.057.108.108.163.16l.01.15c.033.04.05.084.044.135-.016.091.057.133.113.184l.004-.003a.163.163 0 01.047.134c-.016.09.056.132.11.185l.01.152c.036.042.054.09.045.145.01.118-.02.25.109.332l.01.155c.1.15.052.312.048.471.016.208.02.415 0 .623m-11.38-6.92l.005.003c.053-.053.127-.094.11-.185a.164.164 0 01.046-.135l.005.003c.057-.05.129-.09.113-.182a.155.155 0 01.05-.134l.004.003c.107-.084.216-.08.326-.005l-.001.001c.047.06.102.113.164.158.047.06.102.112.165.157.046.06.1.113.164.157.047.06.1.114.165.157.048.059.091.125.186.112.055-.004.101.011.137.05.05.051.095.11.168.137.046.055.072.128.153.15a.128.128 0 01.033.029c.03.074.08.118.17.107a.169.169 0 01.135.047c.05.058.101.113.167.155a.482.482 0 00.174.15c.05.145.195.102.3.14a.135.135 0 01.037.028c.029.09.137.11.18.188.035.201.059.402-.02.6-.048.048-.109.053-.173.048-.11.013-.218.015-.328 0a.68.68 0 01-.173 0c-.102.01-.204.015-.306.001-.126.007-.263-.02-.354.102l.004.006a.14.14 0 01-.163.018c-.06-.093-.145-.131-.26-.121-.08.007-.162.002-.244-.006a.607.607 0 01-.299-.019c-.07-.045-.091-.158-.216-.131-.082.018-.086.105-.152.132-.108.035-.212.046-.307-.032v.001a.159.159 0 01-.05-.132c.017-.09-.056-.133-.109-.186l-.01-.152c-.081-.098-.057-.21-.049-.32a3.785 3.785 0 010-.627c-.003-.16-.056-.325.053-.473m5.72 1.272c.06-.06.141-.097.191-.168l-.001-.002a.175.175 0 01.142-.047c.108-.023.247.049.317-.094a.149.149 0 01.03-.033c.074-.026.12-.084.17-.137v-.002c.04-.048.1-.053.158-.055.08-.003.121-.056.17-.102l-.002-.002a.172.172 0 01.135-.047c.08.008.136-.022.164-.097a.125.125 0 01.029-.032c.063-.025.117-.06.137-.128a.117.117 0 01.03-.03.21.21 0 00.14-.136.115.115 0 01.035-.029.292.292 0 01.137-.02c.077.006.124-.031.15-.098a.12.12 0 01.028-.032.207.207 0 00.141-.134.122.122 0 01.031-.03c.072-.023.111-.08.153-.135v.001c.063-.045.131-.087.118-.179a.149.149 0 01.051-.132c.108-.081.217-.08.325 0v-.001a.156.156 0 01.051.133c-.014.09.056.133.116.18l.003-.002c.04.064.101.111.156.163l.005-.003a.16.16 0 01.048.133c-.016.09.056.133.11.184l.01.31c.111.203.048.417.049.627.007.111.033.224-.049.323l-.01.152c-.052.053-.126.096-.11.186a.161.161 0 01-.047.134l-.004-.003c-.06.049-.114.1-.163.158l.002.003c-.092.073-.195.062-.3.034-.054-.017-.063-.079-.11-.107-.053.024-.06.096-.123.11-.238.047-.479.018-.718.022-.18.003-.36.013-.538-.009-.061.003-.122.01-.183-.001-.11.014-.222.012-.332 0a3.965 3.965 0 01-.64 0c-.062 0-.125.001-.17-.052v-.153c.142-.143.142-.18-.001-.32l-.01-.155a.127.127 0 01-.02-.146m8.776 3.564c-.002-.03-.026-.056-.046-.08a1.652 1.652 0 01-.01-.03c-.127-.082-.1-.21-.109-.328.011-.05.005-.102 0-.153a.186.186 0 00-.044-.153l-.01-.154c-.132-.082-.099-.214-.11-.332a.172.172 0 00-.047-.144l-.004.003c-.056-.05-.13-.088-.113-.18.012-.048.001-.096 0-.145a.169.169 0 00-.05-.148l-.005.004c-.054-.053-.116-.1-.155-.165l-.004.004c-.06-.049-.13-.09-.116-.182a.152.152 0 00-.05-.132.986.986 0 01-.162-.16l-.003.003c-.038-.046-.094-.05-.148-.052a.154.154 0 01-.15-.099.145.145 0 00-.032-.03c-.09-.022-.112-.113-.174-.162a.254.254 0 00-.143-.02c-.117-.016-.259.032-.321-.118a.136.136 0 00-.043-.027.738.738 0 00-.289-.014c-.054-.003-.107-.006-.161-.006-.085 0-.132-.036-.128-.121a.17.17 0 00-.046-.141l-.01-.155c-.054-.052-.127-.095-.107-.186.013-.05-.003-.1 0-.15.011-.102.027-.206-.047-.296v-.155a.165.165 0 00.045-.138c-.004-.081.032-.126.12-.128a.36.36 0 00.142-.022.123.123 0 00.035-.027.225.225 0 01.145-.14.124.124 0 00.03-.032c.027-.074.082-.106.164-.098a.165.165 0 00.134-.048.153.153 0 00.05-.13c-.01-.084.034-.132.11-.16a.125.125 0 00.03-.031c.022-.07.088-.105.136-.153l.005.004a.16.16 0 00.048-.134c-.016-.092.056-.133.112-.184l.006.004c.082-.097.06-.208.05-.318a2.249 2.249 0 000-.47 1.228 1.228 0 000-.322 2.275 2.275 0 000-.472c.003-.158.053-.321-.051-.469l-.008.004c-.053-.053-.126-.095-.11-.186a.166.166 0 00-.045-.134l-.006.004c-.056-.051-.128-.093-.112-.184a.163.163 0 00-.048-.134l-.003.002c-.057-.05-.128-.091-.114-.182a.15.15 0 00-.05-.132l-.001.001a1.292 1.292 0 01-.162-.16l-.002.002a1.332 1.332 0 01-.163-.158l.001-.002a1.125 1.125 0 01-.166-.155.178.178 0 00-.152-.05c-.14.003-.275-.006-.359-.137-.111-.04-.22-.049-.321.026-.085.151-.046.313-.04.471a2.243 2.243 0 000 .461c0 .054-.011.107.002.16-.005.125.016.259-.134.328a.212.212 0 00-.03.149c-.001.048-.012.096 0 .144.017.091-.057.13-.112.18l-.004-.004a.78.78 0 01-.161.16.152.152 0 00-.05.133c.007.097-.041.141-.14.134a.178.178 0 00-.14.047l.002.002a.65.65 0 01-.178.153c-.053.143-.2.091-.302.133a.124.124 0 00-.035.029c-.07.148-.099.017-.142-.02a.384.384 0 01-.161-.14l-.006.003c-.055-.052-.13-.093-.11-.185.013-.05-.003-.1 0-.15.01-.103.028-.208-.052-.296l-.005.003c-.052-.054-.115-.099-.153-.165l-.01-.152c-.055-.051-.127-.094-.11-.184a.159.159 0 00-.05-.133l-.003.003c-.056-.051-.116-.1-.158-.163l-.009-.15c-.051-.055-.126-.097-.11-.187a.151.151 0 00-.05-.131l-.002.002a1.27 1.27 0 01-.16-.161l-.003.002c-.056-.051-.118-.098-.156-.164l-.009-.15a1.289 1.289 0 01-.16-.16h-.002a.84.84 0 01-.161-.16l-.002.002c-.052-.045-.116-.08-.138-.15a.12.12 0 00-.031-.03.21.21 0 01-.14-.136.123.123 0 00-.033-.027c-.079-.027-.11-.08-.101-.158a.165.165 0 00-.047-.13l-.006.003c-.042-.05-.103-.05-.161-.056-.08-.006-.116-.046-.114-.12a.163.163 0 00-.05-.14h-.001c-.06-.048-.116-.099-.163-.159v.001c-.047-.048-.108-.053-.17-.05-.112-.01-.226-.03-.322.05L12.73.872c-.04.064-.101.111-.157.162l-.002-.001a.153.153 0 00-.05.129c.015.091-.04.137-.118.168a.119.119 0 00-.027.035.275.275 0 00-.018.131c.008.082-.046.118-.113.145a.121.121 0 00-.03.03c-.021.07-.086.104-.137.149l-.001-.002c-.053.09-.108.086-.164.003l.001-.002a.75.75 0 01-.162-.159l-.004.003c-.053-.046-.116-.084-.14-.155a.126.126 0 00-.032-.029c-.078-.027-.116-.079-.105-.16a.156.156 0 00-.05-.13l-.002.003c-.057-.05-.116-.1-.16-.162l-.002.002a.771.771 0 01-.161-.16v.001a.646.646 0 01-.164-.16v.002a.659.659 0 01-.166-.158l.003-.002c-.112-.072-.223-.076-.334.004h.001a.832.832 0 01-.165.157L10.27.715a.69.69 0 01-.163.158v.001a.555.555 0 01-.171.151.536.536 0 01-.156.165.85.85 0 01-.166.156.778.778 0 01-.163.159.888.888 0 01-.164.157c-.046.053-.088.112-.16.136a.127.127 0 00-.031.031c-.02.021-.022.072-.06.059-.037-.014-.027-.06-.028-.095a.169.169 0 00-.045-.133l-.01-.152c-.051-.054-.126-.096-.109-.186a.165.165 0 00-.046-.134l-.007.004c-.054-.052-.127-.094-.11-.185a.16.16 0 00-.05-.133L8.63.877c-.14-.1-.293-.057-.444-.043a.162.162 0 00-.047.023c-.044.062-.074.137-.162.156a.12.12 0 00-.03.032c-.025.066-.071.104-.149.098a.293.293 0 00-.137.02.114.114 0 00-.034.029.21.21 0 01-.141.135.115.115 0 00-.03.031c-.02.068-.073.103-.137.128a.126.126 0 00-.029.032c-.027.075-.083.105-.163.097-.052-.002-.098.01-.133.05v-.001a.147.147 0 00-.052.129c.012.085-.033.134-.111.162a.124.124 0 00-.03.031c-.022.07-.087.104-.138.149l-.002-.002a.945.945 0 01-.16.16h-.002a.153.153 0 00-.05.13c.011.084-.033.133-.11.16a.126.126 0 00-.03.031c-.02.071-.088.104-.133.155l-.009.15a.165.165 0 00-.046.133c.012.084-.032.134-.11.162a.123.123 0 00-.031.031c-.02.07-.087.103-.133.153l-.01.15a.168.168 0 00-.045.136c.017.092-.056.134-.112.184l-.007-.004c-.072.09-.06.192-.048.294-.01.121.03.258-.113.338v-.002c-.072.128-.202.102-.319.113-.106-.02-.243.044-.306-.1a.142.142 0 00-.031-.03c-.074-.026-.117-.084-.162-.139h.002c-.046-.045-.106-.048-.165-.05-.068-.003-.109-.038-.135-.094a.144.144 0 00-.03-.031c-.08-.03-.13-.079-.116-.168a.16.16 0 00-.049-.128l-.004.002c-.055-.052-.117-.098-.155-.164l-.01-.152a.259.259 0 01-.1-.22c.002-.219.003-.438 0-.657-.003-.098.03-.171.12-.219.036-.048.04-.103.035-.16a.585.585 0 000-.166c.009-.103.022-.206-.026-.304a.118.118 0 00-.044-.038c-.105-.04-.213-.024-.321-.02-.11-.008-.221-.029-.315.052l.001.002c-.052.055-.105.111-.175.148a.486.486 0 01-.157.162c-.045.053-.083.112-.156.135a.12.12 0 00-.03.03.206.206 0 01-.137.13.116.116 0 00-.03.032c-.02.067-.073.103-.137.128a.121.121 0 00-.03.031c-.018.07-.086.1-.132.148l-.003-.002a.156.156 0 00-.05.133c.015.092-.056.133-.114.181l-.005-.003a.17.17 0 00-.045.14c.018.107-.087.13-.14.187a.214.214 0 00-.024.14c-.01.118.016.246-.112.326L1.9 3.866c-.083.094-.06.204-.051.312a.733.733 0 00-.001.175 5.52 5.52 0 000 .766 1.18 1.18 0 00.002.318c-.004.06 0 .117.047.163l.01.154c.054.052.114.1.155.164l.002-.003c.06.048.13.09.116.181a.158.158 0 00.05.133l.002-.002c.058.05.115.1.162.16a.868.868 0 01.164.158c.073.046.114.121.172.18a.242.242 0 00.15.024c.125.01.266-.015.335.13a.223.223 0 00.146.029c.08-.003.12.034.125.11.01.129.013.253-.132.32-.03.048-.029.1-.026.153a.54.54 0 000 .162 1.072 1.072 0 000 .292c-.011.119.025.253-.115.33v-.001c-.054.078-.13.105-.224.105-.092-.001-.187-.012-.27.042-.055.09-.136.125-.244.118a.518.518 0 00-.225.021.138.138 0 00-.04.029c-.047.153-.2.088-.3.135a.118.118 0 00-.033.03c-.025.07-.085.109-.142.15-.043.055-.084.113-.157.137a.124.124 0 00-.031.03c-.021.071-.087.105-.135.152l-.005-.003a.161.161 0 00-.047.135c.014.091-.056.133-.116.18a.161.161 0 00-.049.139c-.023.104.05.24-.102.305a.144.144 0 00-.033.03c-.024.07-.085.112-.137.16l-.013.309a.169.169 0 00-.043.135c.016.091-.055.133-.11.185l-.01.154a.227.227 0 00-.058.159c.002.417-.014.834.01 1.251-.009.109-.027.218.03.322.11.057.132.15.13.26-.004.123-.01.247.006.37a.533.533 0 00.001.163.19.19 0 00.046.157l.004-.003c.135.077.104.208.114.325a.486.486 0 000 .154.178.178 0 00.048.152l.006-.003c.054.052.128.094.111.185a.172.172 0 00.044.135l.01.15c.055.053.114.101.158.163l.003-.002c.057.05.129.092.114.183a.162.162 0 00.048.134l.004-.004c.058.05.113.102.161.16a.847.847 0 01.163.159l.002-.002c.044.049.105.05.163.055.08.006.117.045.114.12a.167.167 0 00.05.142l.002-.002c.038.044.093.05.147.05.072.003.122.033.15.097.008.012.018.023.03.031.075.025.117.084.166.136l-.002.002a.178.178 0 00.15.047c.123.012.261-.021.342.111.044.046.105.05.164.053.079.006.117.045.114.12a.168.168 0 00.05.142l.004-.003c.055.052.127.094.112.185a.162.162 0 00.048.133l.005-.004c.053.053.127.095.11.186a.165.165 0 00.047.134l.006-.004c.055.052.128.094.112.185a.163.163 0 00.047.133l.005-.003c.055.052.128.093.112.184a.162.162 0 00.048.134l.006-.004c.055.052.114.1.157.163l.002-.002c.06.048.13.09.115.181a.163.163 0 00.048.135l.005-.004c.054.052.127.094.112.185a.157.157 0 00.05.132l.001-.002c.057.05.116.1.16.161l.004-.002c.076.05.118.13.18.192.097.05.08.14.083.222.009.386-.013.773.012 1.16-.005.06.003.116.047.164l.01.306c.052.055.115.1.154.166l.01.15c.055.05.111.102.158.162l.001-.002c.06.047.117.098.162.16l.001-.002a.707.707 0 01.162.16.746.746 0 01.167.156l-.002.002c.065.04.116.097.168.152v.002c.033.037.079.051.127.05.09 0 .149.046.2.107l-.001.002a.19.19 0 00.158.047c.08.01.161.013.242.007.112-.009.199.024.255.12a.236.236 0 00.16.03c.08.01.16.013.24.007.112-.007.2.022.255.12a.235.235 0 00.16.03c.054.003.107.006.157-.02.053-.022.087-.188.165-.02.012.01.025.02.04.026.052.021.107.014.16.014a.213.213 0 00.158-.04c.042-.078.11-.107.2-.108.152 0 .304.006.456-.006.11.01.22.028.314-.05l-.002-.002c.07-.131.236-.074.332-.154l-.002-.002c.082-.13.22-.098.343-.11a.18.18 0 00.15-.047l-.004-.004a.832.832 0 01.183-.153c.124-.153.324-.153.477 0l-.002.002a.816.816 0 01.167.154c.09.076.198.062.305.05.129.008.273-.024.347.125a.218.218 0 00.147.03c.11-.016.133.084.193.133a.162.162 0 00.144.003c.046-.02.045-.081.1-.1.038.025.045.078.087.102a.177.177 0 00.049.02c.415.025.832.02 1.248.002.06.002.121.004.174-.032.055-.09.136-.122.244-.119.14.004.281.007.421-.006.11.01.221.029.316-.05l-.003-.003c.055-.052.098-.123.193-.107.054.005.1-.011.14-.045l-.004-.005c.05-.05.089-.11.162-.133a.122.122 0 00.031-.03c.028-.076.082-.112.166-.102a.17.17 0 00.135-.048l.001.001c.047-.06.103-.11.16-.16l.003.002a.154.154 0 00.05-.133c-.016-.092.057-.133.113-.183l.004.002a.16.16 0 00.047-.134c-.016-.09.057-.132.111-.184l.006.003c.085-.097.06-.21.051-.32.019-.26.018-.52 0-.78.008-.11.033-.222-.048-.32a44.141 44.141 0 01-.01-.153c-.047-.051-.122-.087-.11-.173a.475.475 0 000-.129c-.01-.082.04-.123.11-.15a.124.124 0 00.031-.031c.021-.07.087-.104.136-.152l.001.002a.153.153 0 00.05-.13c-.01-.082.03-.132.107-.16a.12.12 0 00.032-.03c.021-.069.072-.11.14-.133a.116.116 0 00.028-.031c.02-.07.087-.1.133-.148l.005.004a.16.16 0 00.048-.135c-.015-.092.056-.133.114-.182l.003.002c.044-.061.102-.11.156-.164l.01-.15a.164.164 0 00.045-.136c-.014-.097.06-.132.127-.172.033-.07.092-.12.15-.169l.003.002a.157.157 0 00.048-.13c-.015-.092.043-.136.12-.169a.124.124 0 00.027-.035.28.28 0 00.017-.134c-.008-.085.066-.115.115-.162.048-.052.087-.112.16-.135a.128.128 0 00.031-.031c.029-.075.083-.111.167-.102a.172.172 0 00.135-.047l.001.001a.442.442 0 01.168-.143c.042-.057.071-.127.152-.148a.12.12 0 00.03-.03c.022-.07.075-.11.142-.134a.125.125 0 00.029-.032c.027-.075.083-.105.163-.097.052.002.099-.01.132-.051l.008-.15a.67.67 0 01.16-.16v-.001c.048-.058.103-.11.162-.16l.002.003a.157.157 0 00.05-.13c-.016-.092.042-.137.118-.17a.121.121 0 00.027-.034.28.28 0 00.018-.134c-.01-.085.066-.115.113-.163l.005.003a.162.162 0 00.047-.135c-.015-.092.056-.133.114-.182l.005.003a.172.172 0 00.046-.145c.01-.12-.02-.251.112-.331l.007.003a.179.179 0 00.044-.15c.002-.049.013-.098.001-.146-.017-.091.057-.13.112-.18l.006.003c.077-.092.06-.198.048-.304.004-.062.013-.123.007-.184-.013-.13.011-.243.136-.318.065-.27.033-.544.02-.817" fill="#EE0404" fill-rule="evenodd"></path></svg>