<svg xmlns:xlink="http://www.w3.org/1999/xlink" viewBox="0 0 19 18" xmlns="http://www.w3.org/2000/svg" width="32"  height="30.31578947368421" ><path d="M11.2096022 10.7518853c-.523426.0052752-.6117726-.87089944-.6117726-1.94535711 0-1.07492721-.0008917-2.00624013.5951047-1.95251054.5180758.046351.6356426.83693397.6356426 1.91139164 0 1.07398812-.0705126 1.98034801-.6189747 1.98647601m-3.44380148 0c-.54846209-.006128-.61904332-.91248789-.61904332-1.98647601 0-1.07445767.11756679-1.86504064.63571119-1.91139164.59585921-.05372959.59517329.87758333.59517329 1.95251054 0 1.07445767-.08848376 1.95063231-.61184116 1.94535711M18.9713422 6.82631438c-.0638592-.19667311-.8484151-.35900221-3.3201985-.63201025-1.5571769-.17205543-3.0539928-.26361709-3.0688087-.26448911-.1338231-.00811645-.2505668-.09169582-.2988556-.21397927-.3585307-.90857342-.7766678-1.90374473-1.1750505-2.80534203C10.1362051.7099953 9.74159495.06537436 9.47209675.06710975 9.22736029.06436818 8.8627935.71804467 7.83062022 2.95241756c-.64401083 1.39428625-1.18876896 2.75858857-1.19418773 2.77220543-.04876895.12228345-.16599278.2055945-.30002166.21304018-.01481588.00087201-1.4983935.08471969-3.04219495.24959776-2.45744765.26234261-3.24954873.40884127-3.29166426.61939956-.04362454.23101712.45881228.77320973 2.30098917 2.41394107C3.4599343 10.2503852 4.61680794 11.1794845 4.6284 11.1886742c.08059567.0646634.12545487.1603168.12545487.2593241 0 .028307-.00363538.0567481-.0111805.084921-.00384116.0141534-.38274368 1.4333928-.70176534 2.9339979-.36470398 1.7157247-.63529964 3.1132307-.41998917 3.2822676.26490252.2110278 1.06509747-.2807891 3.07244404-1.4010612 1.36463899-.7615381 2.63331769-1.5510478 2.64593863-1.558896.11255956-.0703649.25667148-.0704991.36916245-.0001341.01268953.0078481 1.28246572.7854179 2.63763902 1.5535297 2.0456895 1.1593115 2.8144693 1.5477611 3.0613321 1.4032747.2504296-.1741348.0246931-1.2278653-.4185487-3.3095013-.3223827-1.5138195-.7010795-2.9468098-.7049206-2.9610975-.0074765-.0280386-.0111119-.0564798-.0111119-.0846526 0-.0993427.0452021-.1953986.1263465-.2599949.0113863-.0091226 1.15413-.9210499 2.2970109-1.93292369 1.8113104-1.60357004 2.3313068-2.16561779 2.2751299-2.37141353" fill-rule="evenodd" fill='#f0de00'></path></svg>