<svg height="45" viewBox="0 0 276 45" width="276" xmlns="http://www.w3.org/2000/svg"><path d="m271.669453 34.195218h.412153v1.6298308h.5341v-1.6298308h.409837v-.4710988h-1.35609zm3.113525-.4710988-.381279 1.3543119-.392857-1.3543119h-.714706v2.1009296h.49165l-.016208-1.5739509.451515 1.5739509h.352722l.452287-1.5739509-.017752 1.5739509h.49165v-2.1009296zm-52.872039-16.0879826c-1.907169 0-3.612893.7792144-4.653308 2.0466019h-.054799v-1.5009966h-5.095561v17.6378741h5.095561v-8.5868802c0-3.4273014 1.853142-4.9050147 3.955582-4.9050147 1.461056 0 3.682357.9297797 3.682357 4.4005433v9.0851428h5.09942v-9.4623323c0-5.9325842-4.075986-8.7149383-8.029252-8.7149383zm-25.176794 7.456088c.791116-2.2305399 2.57325-3.1230663 4.371593-3.1230663 2.5308 0 3.966387 1.6119803 4.479647 3.1230663zm4.292867-7.4591924c-5.279254 0-9.168459 4.6923606-9.168459 9.3389307 0 4.8017921 3.977192 9.3979151 9.21554 9.3979151 3.815882 0 6.946387-2.1537051 8.301704-4.8390454l-4.163201-1.4746089c-1.087495 1.3651774-2.414255 1.9883937-4.180953 1.9883937-1.785994 0-3.869138-1.1820155-4.369278-3.4273015h10.343171c2.225159 0 3.350474-.4416065 3.350474-2.1125712-.074095-3.6632388-3.246278-8.8717125-9.328998-8.8717125zm-13.027563-4.3151712h-5.085527v4.8615525h-3.406046v4.158397h3.406046v13.4810294h5.085527v-13.4810294h3.446951v-4.158397h-3.446951zm73.873283 18.4326107c-2.546237 0-4.61626-2.1265412-4.61626-4.7404794 0-2.6131621 2.071567-4.7389272 4.61626-4.7389272 2.545465 0 4.61626 2.1257651 4.61626 4.7389272 0 2.6139382-2.070795 4.7404794-4.61626 4.7404794zm.002316-14.1174395c-5.172743 0-9.360643 4.2049635-9.360643 9.3699751 0 5.1650115 4.1879 9.3653185 9.360643 9.3653185 5.170427 0 9.357555-4.200307 9.357555-9.3653185 0-5.1650116-4.187128-9.3699751-9.357555-9.3699751zm-20.790537 14.1391706c-2.66201 0-4.701161-2.1420634-4.701161-4.7730761 0-2.6317887 2.039151-4.7754043 4.701161-4.7754043 2.6705 0 4.64173 2.1086906 4.64173 4.7754043 0 2.6643854-1.97123 4.7730761-4.64173 4.7730761zm4.613945-12.299014h-.089532c-.402118-.6014852-2.284589-1.8401566-4.695757-1.8401566-5.027641 0-9.259534 4.2158291-9.259534 9.3660945 0 5.1494894 4.231893 9.3691991 9.259534 9.3691991 2.411168 0 4.293639-1.242552 4.695757-1.8448133h.089532v1.3015363h5.100191v-24.8331893h-5.100191zm-102.395149 6.8709012-10.336996-13.6750569c-1.066656-1.4109679-2.08546-1.8432611-2.908993-1.8432611-1.948847 0-2.973053 1.1804632-2.973053 2.8747112v22.1160284h5.472209l-.000772-15.3530065 10.336224 13.6789374c1.065885 1.4078634 2.084688 1.8424849 2.908221 1.8424849 1.949619 0 2.973054-1.1812393 2.973054-2.8747111v-22.1191329h-5.471438zm-47.6429541-15.5229747c-1.2982026 0-2.7415075.5137848-3.8830304 3.1362602-.7841699 1.8005751-6.1521835 14.0320675-6.1521835 14.0320675h-.1041958s-5.36647-12.2384774-6.1529554-14.0382763c-1.1430666-2.6162666-2.6612381-3.1300514-3.8814867-3.1300514-1.7736442 0-3.4207098 1.1781349-3.4207098 3.9938617v21.0015346h5.4714376v-13.8426966h.1080549s4.3430356 9.934207 5.0947891 11.6517383c.8821911 2.0186619 1.8678063 2.3539414 2.8333541 2.3539414.9663196 0 1.9519348-.3352795 2.8341259-2.3539414.7517535-1.7175313 5.0963327-11.6517383 5.0963327-11.6517383h.1072831v13.8426966h5.4706658v-20.9766991c0-2.8149507-1.5058224-4.0186972-3.4214816-4.0186972zm-48.7613221 1.7687546c-4.1446777-7.61363841-11.5827146-12.11429987-20.1591873-12.11429987-10.0954159 0-20.53815123 6.75836523-20.53815123 18.06628687 0 7.9403806 6.76886833 11.1884007 7.05752933 11.3226677 1.0790055.5021431 2.3617716.0729543 2.9236571-.9817791l3.8706813-7.2550756 2.7978504 5.5142611c.3828231.7567071 1.1561875 1.2324625 1.9997876 1.2324625.844372 0 1.6177364-.4757554 2.0013314-1.2324625l2.7808703-5.4824406 3.7850091 7.2100613c.5788656 1.1036283 1.9364984 1.5258321 3.0347994.9437496 1.0967573-.5820824 1.5166278-1.948812.9377622-3.0516642l-5.8048641-11.0595664c-.392085-.7458417-1.1793422-1.2060749-2.0021032-1.2045226-.8389692.0062088-1.6038436.4811881-1.985123 1.2324625l-2.7476821 5.4164712-2.7469101-5.4164712c-.3797359-.7489461-1.1422948-1.2231492-1.9774049-1.2324625-.8343383-.0054328-1.6077027.4501437-2.002875 1.1913287l-4.7204559 8.8492054c-1.2511215-1.12924-2.7098628-3.0726192-2.7098628-5.9962253 0-8.4813293 8.1589176-13.5493271 16.0461542-13.5493271 7.2713237 0 13.5346494 4.04508493 16.7554576 10.8189724.395944.8350942 1.2596115 1.3387896 2.1765346 1.2798052.2161098-.0147461.2940637-.0108655.3365139-.0085372.073323.0038806.1296659.0062089.1767469.0062089 5.5856671 0 9.4787312 5.0617889 9.4787312 9.6051364 0 5.5072761-4.2967264 9.8216711-9.7812849 9.8216711-2.1672728 0-4.2913236-.8816608-5.3479463-1.6996807-.8134991-.6309774-1.9488475-.6255446-2.7569438.0116417-1.9557939 1.5429065-7.3423312 5.1308627-15.1014456 5.1308627-9.0426524 0-15.70346586-5.0633412-18.21419889-8.0544688-.79960634-.9538391-2.21666932-1.0741362-3.16446525-.2700863-.94779593.8040499-1.06819997 2.2297638-.26782181 3.1828268.82893553.9887641 8.48462596 9.658688 21.64648595 9.658688 7.678845 0 13.3378351-2.8871289 16.5794824-5.1370716 1.9473038 1.0531812 4.3893448 1.694248 6.6268533 1.694248 8.0037816 0 14.2732819-6.2989082 14.2732819-14.3386309 0-6.6240982-5.2962343-13.7029968-13.2567939-14.1042456zm64.1529722 16.5125147-4.268941-10.9478066h-5.699124l7.617099 17.3072514c-.488563 2.2864198-1.947304 3.1781701-3.984911 3.1781701l-.747894.0015522.000772 4.4028716h.969407c3.892292 0 5.911375-.7023795 7.124677-3.685746.297923-.7318717 8.567983-21.2040993 8.567983-21.2040993h-5.740031zm59.524363-11.466248c-1.908713 0-3.615208.7792144-4.655623 2.0466019h-.055571v-1.5009966h-5.094789v17.6378741h5.094789v-8.5868802c0-3.4273014 1.853142-4.9050147 3.956353-4.9050147 1.461057 0 3.682357.9297797 3.682357 4.4005433v9.0851428h5.100192v-9.4623323c0-5.9325842-4.075214-8.7149383-8.027708-8.7149383zm-15.672593-7.75721871c-1.643978 0-2.977684 1.34034181-2.977684 2.99345601 0 1.6546663 1.333706 2.9965604 2.977684 2.9965604 1.64475 0 2.977685-1.3418941 2.977685-2.9965604 0-1.6531142-1.332935-2.99345601-2.977685-2.99345601zm-2.54778 25.94690701h5.097104v-17.6502919h-5.097104z" fill="#fff" fill-rule="evenodd"/></svg>