<svg xmlns:xlink="http://www.w3.org/1999/xlink" xmlns="http://www.w3.org/2000/svg" viewBox="0 0 45.35 68.03" width="45.35"  height="68.03" ><defs><style>.cls-1{fill:#fff}</style></defs><g id="Layer_2" data-name="Layer 2"><g id="Layer_1-2" data-name="Layer 1"><path class="cls-1" d="M45.35 0H0v68.03h45.35V0z"/><path d="M44.7.7v66.63H.66V.7H44.7"/><path class="cls-1" d="M2.73 2.75h39.88v18.67H2.73zM2.73 23.51h39.88v34.17H2.73zM2.73 65.26v-5.49h8.01v1.29H5.95v.78H10v1.28H5.95v.86h4.98v1.28h-8.2zM17.73 61.37a.62.62 0 0 0-.47-.37 2.9 2.9 0 0 0-.83-.1c-.71 0-1 .12-1 .32 0 .81 5.64.3 5.64 2.3 0 1.27-1.89 1.89-4.59 1.89s-4.28-.85-4.35-1.84h3.08a.77.77 0 0 0 .53.43 3 3 0 0 0 .92.14c.8 0 1.34-.14 1.34-.4 0-.83-5.65-.26-5.65-2.35 0-1.17 1.8-1.75 4.25-1.75 2.73 0 4 .77 4.21 1.73zM25.87 62.15h1.27c1 0 1.52-.14 1.52-.52s-.54-.57-1.29-.57h-1.5zm0 1.2v1.91h-3.22v-5.48h4.64c3.27 0 4.34.5 4.34 1.56 0 .64-.5 1.16-1.64 1.35 1 .21 1.66.34 1.66 1.44 0 .72 0 1 .34 1v.17h-3.26a2.12 2.12 0 0 1-.16-1c0-.72-.22-.95-1.72-.95zM36.83 61.06V62h1.34c.64 0 1.1-.17 1.1-.48s-.63-.44-1.31-.44zm0 1.91v1h1.4c.8 0 1.4-.09 1.4-.5s-.75-.47-1.78-.47zm-3.22 2.29v-5.48h4.69c2.22 0 4 .29 4 1.38 0 .56-.65 1-1.28 1.19 1.06.15 1.63.67 1.63 1.25 0 1.23-1.67 1.66-4.22 1.66z"/><path d="M8.7 31.51l19.89-5.93 2 6.28-9.97 2.97.82 2.57 9.21-2.74 1.99 6.29-9.21 2.73.86 2.71 10.3-3.06 1.99 6.28-20.22 6.02L8.7 31.51M3.83 11.05V4.82h2.54v1H4.8v1.5h1.45v1H4.8v1.78h1.63v1zM6.69 4.82h1l.73 4.54.82-4.54h1L9 11.05H7.84zM10.66 11.05V4.82h2.55v1h-1.57v1.5h1.45v1h-1.45v1.78h1.62v1zM14.85 11.05h-1V4.82h1.8a.92.92 0 0 1 .8.42 2.05 2.05 0 0 1 .3 1.22 2.31 2.31 0 0 1-.2 1 .9.9 0 0 1-.67.52V8l.22.05a.62.62 0 0 1 .28.16.91.91 0 0 1 .24.36 1.61 1.61 0 0 1 .11.66v1.49a2 2 0 0 0 .06.33h-1a1.87 1.87 0 0 1-.1-.59v-.61-.53a1.46 1.46 0 0 0-.06-.44.56.56 0 0 0-.21-.29.66.66 0 0 0-.42-.12h-.26zm0-3.53h.44a.34.34 0 0 0 .24-.09.57.57 0 0 0 .15-.22 1.32 1.32 0 0 0 .09-.3V6.6a1.08 1.08 0 0 0-.12-.6.39.39 0 0 0-.36-.19h-.44zM18.26 8.9L17 4.82h1.07l.69 2.64.75-2.64h1L19.24 8.9v2.15h-1zM22.56 11.16a1.43 1.43 0 0 1-.93-.27 1.56 1.56 0 0 1-.48-.73 3.89 3.89 0 0 1-.17-1V7.97v-1.2a3.89 3.89 0 0 1 .17-1 1.53 1.53 0 0 1 .48-.77 1.75 1.75 0 0 1 1.87 0 1.53 1.53 0 0 1 .48.72 4.34 4.34 0 0 1 .17 1V9.11a4.34 4.34 0 0 1-.17 1 1.56 1.56 0 0 1-.48.73 1.44 1.44 0 0 1-.94.32zm0-.93a.42.42 0 0 0 .33-.14.79.79 0 0 0 .19-.41 3.88 3.88 0 0 0 .09-.68V8 7a3.88 3.88 0 0 0-.09-.71.75.75 0 0 0-.19-.41.42.42 0 0 0-.33-.14.45.45 0 0 0-.33.14.83.83 0 0 0-.18.41 3.88 3.88 0 0 0-.09.71v2a3.88 3.88 0 0 0 .09.71.87.87 0 0 0 .18.41.45.45 0 0 0 .33.11zM25 11.05V4.82h1.32l1.24 4.32V4.82h.91v6.23h-1.31L25.89 6.5v4.55zM29.27 11.05V4.82h2.55v1h-1.57v1.5h1.45v1h-1.45v1.78h1.62v1zM7 13.14v1H5.89v5.17h-1v-5.14H3.83v-1zM9 19.45a1.43 1.43 0 0 1-.93-.27 1.53 1.53 0 0 1-.48-.72 4 4 0 0 1-.17-1v-1.19-1.19a3.88 3.88 0 0 1 .17-1 1.53 1.53 0 0 1 .48-.72A1.43 1.43 0 0 1 9 13a1.43 1.43 0 0 1 .93.27 1.53 1.53 0 0 1 .48.72 3.87 3.87 0 0 1 .18 1v2.38a4 4 0 0 1-.18 1 1.53 1.53 0 0 1-.48.72 1.43 1.43 0 0 1-.93.36zm0-.93a.42.42 0 0 0 .33-.13.92.92 0 0 0 .18-.39 4 4 0 0 0 .08-.71v-1-1a4 4 0 0 0-.08-.71.92.92 0 0 0-.19-.41.48.48 0 0 0-.66 0 .92.92 0 0 0-.18.41 3.16 3.16 0 0 0-.09.71v2a3.16 3.16 0 0 0 .09.71.92.92 0 0 0 .18.41.42.42 0 0 0 .34.11zM11.4 13.14H13a1.3 1.3 0 0 1 .77.21 1.34 1.34 0 0 1 .46.6 3.16 3.16 0 0 1 .22 1 10.16 10.16 0 0 1 .06 1.29V17.48a4.16 4.16 0 0 1-.12.69 1.63 1.63 0 0 1-.26.6 1.24 1.24 0 0 1-1.14.6H11.4zm1 5.25h.47a.57.57 0 0 0 .36-.11.74.74 0 0 0 .22-.38 3.22 3.22 0 0 0 .11-.66v-1-.81a4.1 4.1 0 0 0-.08-.68 1.18 1.18 0 0 0-.2-.48.49.49 0 0 0-.39-.17h-.51zM16.89 19.45a1.43 1.43 0 0 1-.93-.27 1.53 1.53 0 0 1-.48-.72 3.58 3.58 0 0 1-.17-1v-1.19-1.19a3.51 3.51 0 0 1 .17-1 1.53 1.53 0 0 1 .48-.72 1.43 1.43 0 0 1 .93-.27 1.43 1.43 0 0 1 .93.27 1.53 1.53 0 0 1 .48.72 3.87 3.87 0 0 1 .18 1v2.38a4 4 0 0 1-.18 1 1.53 1.53 0 0 1-.48.72 1.43 1.43 0 0 1-.93.27zm0-.93a.42.42 0 0 0 .33-.13.92.92 0 0 0 .19-.41 4 4 0 0 0 .08-.71v-1-1a4 4 0 0 0-.08-.71.92.92 0 0 0-.19-.41.48.48 0 0 0-.66 0 .92.92 0 0 0-.18.41 3.16 3.16 0 0 0-.09.71v2a3.16 3.16 0 0 0 .09.71.92.92 0 0 0 .18.41.42.42 0 0 0 .33.13zM22.17 17.65a2.54 2.54 0 0 1-.15 1 1.25 1.25 0 0 1-.38.54 1.07 1.07 0 0 1-.53.24 2.76 2.76 0 0 1-.57.06 1.43 1.43 0 0 1-.73-.17 1 1 0 0 1-.43-.44 1.78 1.78 0 0 1-.19-.64 4.82 4.82 0 0 1 0-.77h1v.42a1.7 1.7 0 0 0 .06.35.45.45 0 0 0 .17.23.48.48 0 0 0 .31.09.4.4 0 0 0 .37-.19 1 1 0 0 0 .12-.51.88.88 0 0 0-.14-.49 2.66 2.66 0 0 0-.37-.39l-.47-.37a3.08 3.08 0 0 1-.47-.42 2 2 0 0 1-.36-.58 1.86 1.86 0 0 1-.15-.79 2.87 2.87 0 0 1 .07-.67 1.59 1.59 0 0 1 .25-.56 1.23 1.23 0 0 1 .47-.37 1.82 1.82 0 0 1 .75-.14 1.24 1.24 0 0 1 1 .45 2.09 2.09 0 0 1 .3 1.41h-.95v-.34a.94.94 0 0 0-.07-.3.5.5 0 0 0-.13-.21.36.36 0 0 0-.24-.08.44.44 0 0 0-.37.16.8.8 0 0 0-.13.5.92.92 0 0 0 .14.5 1.89 1.89 0 0 0 .37.38c.14.11.3.23.47.34a2.67 2.67 0 0 1 .47.42 1.88 1.88 0 0 1 .37.56 2.19 2.19 0 0 1 .14.78z"/></g></g></svg>