<svg xmlns:xlink="http://www.w3.org/1999/xlink" aria-role="img" alt="" xmlns="http://www.w3.org/2000/svg" viewBox="0 0 266 264" width="266"  height="264" ><path fill="#FFCC00" fill-rule="evenodd" d="M265.795 132c0 4.544-8.22 8.618-8.68 13.042-.469 4.51 6.728 10.193 5.807 14.551-.936 4.429-9.824 6.705-11.204 10.952-1.395 4.296 4.456 11.36 2.634 15.445-1.838 4.118-11.005 4.487-13.247 8.361-2.253 3.9 1.994 12.029-.645 15.655-2.645 3.635-11.69 2.093-14.694 5.428-3.006 3.34-.533 12.173-3.87 15.182-3.336 3.004-11.863-.375-15.5 2.272-3.623 2.638-3.032 11.795-6.927 14.048-3.878 2.243-11.516-2.833-15.633-.995-4.083 1.818-5.412 10.9-9.708 12.293-4.244 1.379-10.65-5.183-15.077-4.245-4.358.92-7.556 9.523-12.064 9.991-4.422.46-9.324-7.293-13.868-7.293-4.542 0-9.446 7.753-13.867 7.293-4.509-.468-7.707-9.07-12.066-9.991-4.424-.938-10.834 5.624-15.078 4.245-4.296-1.395-5.625-10.475-9.71-12.295-4.116-1.838-11.755 3.238-15.63.996-3.9-2.256-3.306-11.413-6.932-14.05-3.636-2.648-12.164.732-15.497-2.275-3.338-3.009-.862-11.842-3.87-15.18-3.005-3.334-12.05-1.792-14.694-5.428-2.638-3.626 1.611-11.755-.646-15.654-2.24-3.875-11.407-4.244-13.244-8.361-1.819-4.086 4.03-11.148 2.635-15.444-1.38-4.245-10.267-6.523-11.202-10.95-.922-4.358 6.276-10.042 5.807-14.55-.461-4.425-8.681-8.5-8.681-13.044 0-4.543 8.22-8.619 8.681-13.041.469-4.51-6.73-10.193-5.807-14.551.935-4.429 9.822-6.707 11.202-10.952 1.395-4.296-4.454-11.36-2.633-15.445 1.837-4.118 11.004-4.487 13.246-8.363 2.255-3.897-1.994-12.029.645-15.655 2.645-3.635 11.69-2.091 14.694-5.426 3.006-3.34.533-12.175 3.87-15.182 3.336-3.004 11.863.375 15.5-2.272 3.625-2.638 3.03-11.795 6.929-14.048 3.876-2.245 11.514 2.833 15.631.995 4.083-1.82 5.412-10.9 9.708-12.293 4.244-1.38 10.652 5.18 15.077 4.245 4.36-.923 7.556-9.523 12.065-9.991 4.421-.46 9.325 7.291 13.867 7.291 4.544 0 9.446-7.75 13.868-7.291 4.508.468 7.708 9.068 12.066 9.991 4.425.938 10.833-5.625 15.077-4.245 4.296 1.395 5.625 10.475 9.71 12.295 4.116 1.838 11.755-3.24 15.633-.996 3.896 2.256 3.303 11.411 6.929 14.05 3.637 2.648 12.164-.732 15.5 2.273 3.335 3.009.861 11.842 3.868 15.182 3.004 3.334 12.049 1.792 14.693 5.428 2.638 3.626-1.61 11.753.646 15.652 2.24 3.877 11.407 4.246 13.244 8.363 1.82 4.084-4.03 11.148-2.635 15.444 1.38 4.245 10.268 6.521 11.204 10.95.92 4.358-6.276 10.042-5.807 14.55.46 4.423 8.68 8.5 8.68 13.042"></path></svg>